<svg height="200" preserveAspectRatio="xMidYMid meet" viewBox="0 0 4400 4200" width="200" xmlns="http://www.w3.org/2000/svg"><path d="m354 4109-54-202v-135l-125-4-170-279 24-250 2062-19 2059 20 28 273-156 255-107 4v145 145l-33 29-32 29h-215-215l-32-29-33-29v-146-146h-210-210v146 146l-33 29-32 29h-215-215l-32-29-33-29v-146-145l-243-3-242-3v138l-55 205-236 12h-211l-29-29-29-29v-146-146h-232-233l1 116-41 212-238 21z"/><path d="m311 3033-18-51 84-182 52-94 31-85 130-131 30-12v-958-958l-44-26-151-215-41-69-91-190-6-52h773 773l-7 46-92 195-34 51-80 171-85 71-45 27v947 947l52 30 158 242 36 56 87 195 2 47-745 1z"/><path d="m3699 2618-3-29-102-125-273-298-177-40-171-19-70-117-110-210-113-215-107-205-223-425-256-538 86-93 55 13 35 43 34 73 33 68 13 25 68 81 244 143 310 10h267l67 128 119 227 155 293 181 347 194 370 125 260-15 49-148 101-152 82z"/><path d="m4143 2013-105-102-311-596-62-123 301 138 193 110 82 284 4 103 15 86-38 136z"/><path d="m2705 581-250-251-34-65-105-212-6-43h770l771 13-91 232-40 75-182 226-63 29-370 2z"/></svg>
